<svg width="600" height="400" viewBox="0 0 600 400" xmlns="http://www.w3.org/2000/svg">
  <!-- Background elements -->
  <rect width="600" height="400" fill="#050c1a"/>
  <path d="M300,50 Q450,100 400,350" stroke="#ff6b35" stroke-width="15" fill="none" opacity="0.6"/>
  <path d="M150,100 Q300,50 450,300" stroke="#3a86ff" stroke-width="20" fill="none" opacity="0.5"/>
  
  <!-- First person silhouette -->
  <g transform="translate(150, 200)">
    <path d="M0,0 Q-25,-40 -15,-80 Q-5,-100 15,-100 Q35,-100 45,-80 Q55,-40 30,0 Z" fill="#1e3a7b"/>
    <rect x="-30" y="0" width="60" height="100" rx="10" fill="#1e3a7b"/>
    <path d="M-30,20 L-60,60 L-50,70 L-20,30 Z" fill="#1e3a7b"/>
    <path d="M30,20 L60,60 L50,70 L20,30 Z" fill="#1e3a7b"/>
  </g>
  
  <!-- Second person silhouette -->
  <g transform="translate(300, 200)">
    <path d="M0,0 Q-25,-40 -15,-80 Q-5,-100 15,-100 Q35,-100 45,-80 Q55,-40 30,0 Z" fill="#0a1833"/>
    <rect x="-30" y="0" width="60" height="100" rx="10" fill="#0a1833"/>
    <path d="M-30,10 L-70,30 L-65,50 L-25,30 Z" fill="#0a1833"/>
    <path d="M30,10 L70,30 L65,50 L25,30 Z" fill="#0a1833"/>
    <!-- Laptop -->
    <rect x="-20" y="40" width="40" height="30" rx="3" fill="#3a86ff" opacity="0.8"/>
  </g>
  
  <!-- Third person silhouette -->
  <g transform="translate(450, 200)">
    <path d="M0,0 Q-25,-40 -15,-80 Q-5,-100 15,-100 Q35,-100 45,-80 Q55,-40 30,0 Z" fill="#13285c"/>
    <rect x="-30" y="0" width="60" height="100" rx="10" fill="#13285c"/>
    <path d="M-30,20 L-60,60 L-50,70 L-20,30 Z" fill="#13285c"/>
    <path d="M30,20 L60,60 L50,70 L20,30 Z" fill="#13285c"/>
    <!-- Glasses -->
    <path d="M-15,-60 L15,-60" stroke="#3a86ff" stroke-width="3" fill="none"/>
    <circle cx="-10" cy="-60" r="8" stroke="#3a86ff" stroke-width="2" fill="none"/>
    <circle cx="10" cy="-60" r="8" stroke="#3a86ff" stroke-width="2" fill="none"/>
  </g>
  
  <!-- Decorative elements -->
  <circle cx="100" cy="80" r="20" fill="#ff6b35" opacity="0.3"/>
  <circle cx="500" cy="320" r="25" fill="#3a86ff" opacity="0.3"/>
  <circle cx="400" cy="100" r="15" fill="#ffffff" opacity="0.1"/>
  <circle cx="200" cy="350" r="10" fill="#ffffff" opacity="0.1"/>
</svg>
