<svg width="32" height="32" viewBox="0 0 32 32" xmlns="http://www.w3.org/2000/svg">
  <rect width="32" height="32" rx="6" fill="#0a1833"/>
  <path d="M16,6 L9,10 L9,18 L16,22 L23,18 L23,10 L16,6 Z" fill="none" stroke="#3a86ff" stroke-width="2"/>
  <path d="M16,6 L16,14 L23,10 L16,6 Z" fill="#3a86ff" opacity="0.8"/>
  <path d="M9,10 L16,14 L16,6 L9,10 Z" fill="#3a86ff" opacity="0.6"/>
  <path d="M16,14 L16,22 L23,18 L16,14 Z" fill="#3a86ff" opacity="0.4"/>
  <path d="M9,18 L16,22 L16,14 L9,18 Z" fill="#3a86ff" opacity="0.2"/>
  <path d="M13,16 L13,18 L19,18 L19,16 L16,15 L13,16 Z" fill="#ff6b35"/>
</svg>
